<svg width="20" height="21" viewBox="0 0 20 21" fill="none" xmlns="http://www.w3.org/2000/svg">
<circle cx="10" cy="10.5" r="10" fill="#EEEFF1"/>
<path d="M14.0026 11.6693H10.6693V15.0026C10.6693 15.3693 10.3693 15.6693 10.0026 15.6693C9.63594 15.6693 9.33594 15.3693 9.33594 15.0026V11.6693H6.0026C5.63594 11.6693 5.33594 11.3693 5.33594 11.0026C5.33594 10.6359 5.63594 10.3359 6.0026 10.3359H9.33594V7.0026C9.33594 6.63594 9.63594 6.33594 10.0026 6.33594C10.3693 6.33594 10.6693 6.63594 10.6693 7.0026V10.3359H14.0026C14.3693 10.3359 14.6693 10.6359 14.6693 11.0026C14.6693 11.3693 14.3693 11.6693 14.0026 11.6693Z" fill="#0E0E0E"/>
</svg>
