<svg width="16" height="16" viewBox="0 0 16 16" fill="none" xmlns="http://www.w3.org/2000/svg">
<path d="M8.30078 2C7.05461 2 5.83641 2.36953 4.80026 3.06187C3.7641 3.75421 2.95651 4.73826 2.47962 5.88958C2.00273 7.04089 1.87795 8.30777 2.12107 9.53C2.36419 10.7522 2.96428 11.8749 3.84546 12.7561C4.72664 13.6373 5.84933 14.2374 7.07156 14.4805C8.29379 14.7236 9.56067 14.5988 10.712 14.1219C11.8633 13.6451 12.8474 12.8375 13.5397 11.8013C14.232 10.7651 14.6016 9.54696 14.6016 8.30078C14.6016 6.62971 13.9377 5.02708 12.7561 3.84546C11.5745 2.66383 9.97185 2 8.30078 2ZM8.30078 13.7014C7.23263 13.7014 6.18847 13.3847 5.30033 12.7913C4.4122 12.1978 3.71998 11.3544 3.31122 10.3675C2.90245 9.38068 2.7955 8.29479 3.00389 7.24716C3.21227 6.19953 3.72664 5.23723 4.48193 4.48193C5.23723 3.72663 6.19954 3.21227 7.24717 3.00388C8.29479 2.7955 9.38069 2.90245 10.3675 3.31121C11.3544 3.71998 12.1978 4.41219 12.7913 5.30033C13.3847 6.18846 13.7015 7.23263 13.7015 8.30078C13.7015 9.73313 13.1325 11.1068 12.1196 12.1196C11.1068 13.1325 9.73313 13.7014 8.30078 13.7014Z" fill="#0E0E0E"/>
<path d="M8.75167 4.25H7.85156V8.08448C7.85165 8.21931 7.88202 8.35241 7.94045 8.47393C7.99887 8.59545 8.08385 8.70229 8.1891 8.78656L10.2729 10.4518L10.8309 9.74968L8.75167 8.08448V4.25Z" fill="#0E0E0E"/>
</svg>
