<svg width="16" height="16" viewBox="0 0 16 16" fill="none" xmlns="http://www.w3.org/2000/svg">
<path d="M7.99957 15.3333C9.32566 15.3333 10.5974 14.8065 11.5351 13.8689C12.4728 12.9312 12.9996 11.6594 12.9996 10.3333C12.9996 9.756 12.8462 9.202 12.6662 8.68667C11.5549 9.78467 10.7109 10.3333 10.1329 10.3333C12.7962 5.66667 11.3329 3.66667 7.33291 1C7.66624 4.33333 5.46891 5.84933 4.57424 6.69133C3.84446 7.37779 3.33773 8.26765 3.11976 9.24555C2.90179 10.2235 2.98263 11.2443 3.35181 12.1757C3.72098 13.1071 4.36145 13.9061 5.19018 14.4691C6.01891 15.0322 6.99768 15.3332 7.99957 15.3333ZM8.47291 3.49C10.6336 5.32333 10.6442 6.748 8.97491 9.67267C8.46758 10.5613 9.10957 11.6667 10.1329 11.6667C10.5916 11.6667 11.0556 11.5333 11.5456 11.27C11.4003 11.8187 11.1297 12.3261 10.755 12.7524C10.3803 13.1787 9.91178 13.5122 9.38629 13.7266C8.8608 13.941 8.29271 14.0305 7.72674 13.9881C7.16078 13.9456 6.6124 13.7724 6.12478 13.4819C5.63716 13.1915 5.22361 12.7919 4.9167 12.3145C4.60979 11.8371 4.41789 11.2949 4.35612 10.7307C4.29435 10.1665 4.36439 9.59573 4.56073 9.06322C4.75707 8.53071 5.07434 8.05105 5.48757 7.662C5.57157 7.58333 5.99757 7.20533 6.01624 7.18867C6.29891 6.93533 6.53157 6.71067 6.76157 6.46467C7.58157 5.586 8.17091 4.61133 8.47224 3.49" fill="#EE505A"/>
</svg>
