<svg width="20" height="20" viewBox="0 0 20 20" fill="none" xmlns="http://www.w3.org/2000/svg">
<path d="M8.33464 13.3336H11.668C12.1263 13.3336 12.5013 12.9586 12.5013 12.5003V8.33359H13.8263C14.568 8.33359 14.943 7.43359 14.418 6.90859L10.593 3.08359C10.268 2.75859 9.74297 2.75859 9.41797 3.08359L5.59297 6.90859C5.06797 7.43359 5.43464 8.33359 6.1763 8.33359H7.5013V12.5003C7.5013 12.9586 7.8763 13.3336 8.33464 13.3336ZM5.0013 15.0003H15.0013C15.4596 15.0003 15.8346 15.3753 15.8346 15.8336C15.8346 16.2919 15.4596 16.6669 15.0013 16.6669H5.0013C4.54297 16.6669 4.16797 16.2919 4.16797 15.8336C4.16797 15.3753 4.54297 15.0003 5.0013 15.0003Z" fill="black"/>
</svg>
