<svg width="25" height="25" viewBox="0 0 25 25" fill="none" xmlns="http://www.w3.org/2000/svg">
<circle cx="12.5" cy="12.5" r="12.5" fill="#EF3124"/>
<path d="M21.042 13.9689C21.3141 14.0157 21.4981 14.2748 21.4366 14.5439C20.9963 16.469 19.9447 18.2054 18.4323 19.489C16.7926 20.8807 14.7157 21.6515 12.565 21.6666C10.4144 21.6817 8.32686 20.9401 6.66774 19.5716C5.1375 18.3094 4.06155 16.5879 3.59431 14.6693C3.52897 14.401 3.70936 14.1394 3.98082 14.0888L7.09374 13.5083C7.3652 13.4577 7.62386 13.6378 7.70132 13.9028C7.98132 14.8609 8.5431 15.7174 9.319 16.3574C10.224 17.1039 11.3627 17.5084 12.5358 17.5001C13.7089 17.4919 14.8417 17.0714 15.7362 16.3123C16.503 15.6615 17.0527 14.7972 17.3192 13.8353C17.3929 13.5692 17.649 13.3855 17.9212 13.4323L21.042 13.9689Z" fill="white"/>
</svg>
