<svg width="161" height="32" viewBox="0 0 161 32" fill="none" xmlns="http://www.w3.org/2000/svg">
<circle cx="16" cy="16" r="15" fill="#EF3124"/>
<path d="M26.3481 17.7795C26.6203 17.8263 26.8041 18.0852 26.745 18.3549C26.2302 20.7039 24.9583 22.8246 23.118 24.3866C21.1503 26.0566 18.6581 26.9816 16.0773 26.9997C13.4965 27.0179 10.9915 26.1279 9.00051 24.4857C7.13839 22.9497 5.83686 20.8471 5.28916 18.5056C5.22627 18.2367 5.40644 17.9753 5.6779 17.9247L9.61001 17.1915C9.88147 17.1409 10.1405 17.3207 10.2135 17.587C10.5395 18.7756 11.225 19.8393 12.182 20.6287C13.268 21.5244 14.6344 22.0099 16.0421 22C17.4499 21.9901 18.8093 21.4855 19.8826 20.5746C20.8284 19.7718 21.4989 18.6986 21.8082 17.5056C21.8775 17.2383 22.1339 17.0548 22.4061 17.1016L26.3481 17.7795Z" fill="white"/>
<path d="M57.3076 25H53.5264L52.4307 21.5732H46.9521L45.8672 25H42.1074L47.7148 9.5957H51.8291L57.3076 25ZM51.6357 18.9092L49.9814 13.7314C49.8597 13.3447 49.7738 12.8828 49.7236 12.3457H49.6377C49.6019 12.7969 49.5124 13.2445 49.3691 13.6885L47.6934 18.9092H51.6357ZM62.292 25H58.8975V8.71484H62.292V25ZM72.3252 11.3145C71.8883 11.1426 71.4694 11.0566 71.0684 11.0566C69.9798 11.0566 69.4355 11.6475 69.4355 12.8291V14H71.9492V16.5029H69.4355V25H66.0518V16.5029H64.2041V14H66.0518V12.6357C66.0518 11.3825 66.46 10.3727 67.2764 9.60645C68.0928 8.84017 69.2028 8.45703 70.6064 8.45703C71.2939 8.45703 71.8669 8.52865 72.3252 8.67188V11.3145ZM82.7451 25H79.5332V23.4209H79.4902C78.7526 24.6527 77.6605 25.2686 76.2139 25.2686C75.1468 25.2686 74.3053 24.9678 73.6895 24.3662C73.0807 23.7575 72.7764 22.9482 72.7764 21.9385C72.7764 19.8044 74.0404 18.5726 76.5684 18.2432L79.5547 17.8457C79.5547 16.6426 78.903 16.041 77.5996 16.041C76.2891 16.041 75.043 16.4313 73.8613 17.2119V14.6553C74.334 14.4118 74.9785 14.1969 75.7949 14.0107C76.6185 13.8245 77.3669 13.7314 78.04 13.7314C81.1768 13.7314 82.7451 15.2962 82.7451 18.4258V25ZM79.5547 20.5312V19.79L77.5566 20.0479C76.4538 20.1911 75.9023 20.6888 75.9023 21.541C75.9023 21.9277 76.0348 22.2464 76.2998 22.4971C76.5719 22.7406 76.9372 22.8623 77.3955 22.8623C78.0329 22.8623 78.5521 22.6439 78.9531 22.207C79.3542 21.763 79.5547 21.2044 79.5547 20.5312ZM95.3135 19.6934V25H91.8438V9.5957H97.2793C101.161 9.5957 103.102 11.2321 103.102 14.5049C103.102 16.0518 102.543 17.305 101.426 18.2646C100.316 19.2171 98.8298 19.6934 96.9678 19.6934H95.3135ZM95.3135 12.2598V17.0615H96.6777C98.5254 17.0615 99.4492 16.2523 99.4492 14.6338C99.4492 13.0511 98.5254 12.2598 96.6777 12.2598H95.3135ZM114.241 20.4668H107.065C107.18 22.0638 108.186 22.8623 110.084 22.8623C111.294 22.8623 112.358 22.5758 113.274 22.0029V24.4521C112.257 24.9964 110.936 25.2686 109.311 25.2686C107.535 25.2686 106.156 24.778 105.175 23.7969C104.194 22.8086 103.703 21.4336 103.703 19.6719C103.703 17.8457 104.233 16.3991 105.293 15.332C106.353 14.265 107.656 13.7314 109.203 13.7314C110.807 13.7314 112.046 14.2077 112.92 15.1602C113.801 16.1126 114.241 17.4053 114.241 19.0381V20.4668ZM111.094 18.3828C111.094 16.8073 110.456 16.0195 109.182 16.0195C108.637 16.0195 108.165 16.2451 107.764 16.6963C107.37 17.1475 107.13 17.7096 107.044 18.3828H111.094ZM121.503 25.2686C119.67 25.2686 118.227 24.7565 117.174 23.7324C116.128 22.7012 115.605 21.3047 115.605 19.543C115.605 17.724 116.15 16.3024 117.238 15.2783C118.327 14.2471 119.799 13.7314 121.653 13.7314C123.479 13.7314 124.912 14.2471 125.95 15.2783C126.989 16.3024 127.508 17.6595 127.508 19.3496C127.508 21.1758 126.971 22.6188 125.896 23.6787C124.829 24.7386 123.365 25.2686 121.503 25.2686ZM121.589 16.3311C120.787 16.3311 120.164 16.6068 119.72 17.1582C119.276 17.7096 119.054 18.4902 119.054 19.5C119.054 21.6126 119.906 22.6689 121.61 22.6689C123.236 22.6689 124.049 21.584 124.049 19.4141C124.049 17.3587 123.229 16.3311 121.589 16.3311ZM133.147 23.7217H133.104V30.0596H129.71V14H133.104V15.6543H133.147C133.985 14.3724 135.163 13.7314 136.682 13.7314C138.107 13.7314 139.206 14.222 139.979 15.2031C140.76 16.1771 141.15 17.5055 141.15 19.1885C141.15 21.0218 140.696 22.4935 139.786 23.6035C138.884 24.7135 137.681 25.2686 136.177 25.2686C134.852 25.2686 133.842 24.7529 133.147 23.7217ZM133.051 19.21V20.0908C133.051 20.8499 133.251 21.4694 133.652 21.9492C134.053 22.429 134.58 22.6689 135.231 22.6689C136.005 22.6689 136.603 22.3717 137.025 21.7773C137.455 21.1758 137.67 20.3271 137.67 19.2314C137.67 17.2979 136.918 16.3311 135.414 16.3311C134.719 16.3311 134.15 16.596 133.706 17.126C133.269 17.6488 133.051 18.3434 133.051 19.21ZM146.747 25H143.353V8.71484H146.747V25ZM159.487 20.4668H152.312C152.426 22.0638 153.432 22.8623 155.33 22.8623C156.54 22.8623 157.604 22.5758 158.521 22.0029V24.4521C157.504 24.9964 156.182 25.2686 154.557 25.2686C152.781 25.2686 151.402 24.778 150.421 23.7969C149.44 22.8086 148.949 21.4336 148.949 19.6719C148.949 17.8457 149.479 16.3991 150.539 15.332C151.599 14.265 152.902 13.7314 154.449 13.7314C156.053 13.7314 157.292 14.2077 158.166 15.1602C159.047 16.1126 159.487 17.4053 159.487 19.0381V20.4668ZM156.34 18.3828C156.34 16.8073 155.702 16.0195 154.428 16.0195C153.883 16.0195 153.411 16.2451 153.01 16.6963C152.616 17.1475 152.376 17.7096 152.29 18.3828H156.34Z" fill="#0E0E0E"/>
</svg>
