<svg width="20" height="20" viewBox="0 0 20 20" fill="none" xmlns="http://www.w3.org/2000/svg">
<path d="M4.1651 10.9844V13.326C4.1651 13.9344 4.49844 14.501 5.03177 14.7927L9.19844 17.0677C9.69844 17.3427 10.2984 17.3427 10.7984 17.0677L14.9651 14.7927C15.4984 14.501 15.8318 13.9344 15.8318 13.326V10.9844L10.7984 13.7344C10.2984 14.0094 9.69844 14.0094 9.19844 13.7344L4.1651 10.9844ZM9.19844 2.93438L2.17344 6.76771C1.59844 7.08437 1.59844 7.91771 2.17344 8.23438L9.19844 12.0677C9.69844 12.3427 10.2984 12.3427 10.7984 12.0677L17.4984 8.40938V13.3344C17.4984 13.7927 17.8734 14.1677 18.3318 14.1677C18.7901 14.1677 19.1651 13.7927 19.1651 13.3344V7.99271C19.1651 7.68438 18.9984 7.40938 18.7318 7.25938L10.7984 2.93438C10.2984 2.66771 9.69844 2.66771 9.19844 2.93438Z" fill="#0E0E0E"/>
</svg>
