<svg width="24" height="24" viewBox="0 0 24 24" fill="none" xmlns="http://www.w3.org/2000/svg">
<path d="M8.29289 5.29289C7.90237 5.68342 7.90237 6.31658 8.29289 6.70711C8.68342 7.09763 9.31658 7.09763 9.70711 6.70711L8.29289 5.29289ZM12 3L12.7071 2.29289C12.3166 1.90237 11.6834 1.90237 11.2929 2.29289L12 3ZM14.2929 6.70711C14.6834 7.09763 15.3166 7.09763 15.7071 6.70711C16.0976 6.31658 16.0976 5.68342 15.7071 5.29289L14.2929 6.70711ZM11 13C11 13.5523 11.4477 14 12 14C12.5523 14 13 13.5523 13 13H11ZM7 11H8V9H7V11ZM5.235 10.152L5.61747 11.076L5.61765 11.0759L5.235 10.152ZM4.152 11.235L5.07589 11.6176L5.07597 11.6175L4.152 11.235ZM4.218 19.908L3.32693 20.3619L3.327 20.362L4.218 19.908ZM5.092 20.782L5.54671 19.8914L5.546 19.891L5.092 20.782ZM18.908 20.782L19.3627 21.6726L19.3628 21.6726L18.908 20.782ZM19.782 19.908L20.6726 20.3628L20.6731 20.3619L19.782 19.908ZM19.848 11.235L18.924 11.6175L18.9241 11.6176L19.848 11.235ZM18.765 10.152L18.3824 11.0759L18.3825 11.076L18.765 10.152ZM17 9H16V11H17V9ZM9.70711 6.70711L12.7071 3.70711L11.2929 2.29289L8.29289 5.29289L9.70711 6.70711ZM11.2929 3.70711L14.2929 6.70711L15.7071 5.29289L12.7071 2.29289L11.2929 3.70711ZM11 3V13H13V3H11ZM7 9C6.54767 9 6.1584 8.99946 5.83765 9.02131C5.50802 9.04377 5.17814 9.09318 4.85235 9.22811L5.61765 11.0759C5.65886 11.0588 5.74548 11.0322 5.9736 11.0167C6.2106 11.0005 6.52033 11 7 11V9ZM4.85253 9.22803C4.4883 9.3788 4.15736 9.59987 3.87862 9.87862L5.29283 11.2928C5.38574 11.1999 5.49606 11.1262 5.61747 11.076L4.85253 9.22803ZM3.87862 9.87862C3.59988 10.1574 3.3788 10.4883 3.22803 10.8525L5.07597 11.6175C5.12622 11.4961 5.19992 11.3857 5.29283 11.2928L3.87862 9.87862ZM3.22811 10.8524C3.09318 11.1781 3.04377 11.508 3.02131 11.8377C2.99946 12.1584 3 12.5477 3 13H5C5 12.5203 5.00054 12.2106 5.01669 11.9736C5.03223 11.7455 5.05882 11.6589 5.07589 11.6176L3.22811 10.8524ZM3 13V17.8H5V13H3ZM3 17.8C3 18.3435 2.99922 18.8113 3.03057 19.1949C3.06288 19.5903 3.1342 19.9835 3.32693 20.3619L5.10907 19.4541C5.0838 19.4045 5.04612 19.3037 5.02393 19.0321C5.00078 18.7487 5 18.3765 5 17.8H3ZM3.327 20.362C3.61462 20.9265 4.07354 21.3854 4.638 21.673L5.546 19.891C5.35785 19.7951 5.20487 19.6422 5.109 19.454L3.327 20.362ZM4.63729 21.6726C5.01558 21.8658 5.40892 21.9371 5.80385 21.9694C6.18719 22.0008 6.65451 22 7.197 22V20C6.62149 20 6.24981 19.9992 5.9669 19.9761C5.69558 19.9539 5.59542 19.9162 5.54671 19.8914L4.63729 21.6726ZM7.197 22H16.804V20H7.197V22ZM16.804 22C17.3465 22 17.8136 22.0008 18.1967 21.9694C18.5916 21.9371 18.9846 21.8657 19.3627 21.6726L18.4533 19.8914C18.4044 19.9163 18.3044 19.9539 18.0335 19.9761C17.7509 19.9992 17.3795 20 16.804 20V22ZM19.3628 21.6726C19.9263 21.3848 20.3848 20.9263 20.6726 20.3628L18.8914 19.4532C18.7952 19.6417 18.6417 19.7952 18.4532 19.8914L19.3628 21.6726ZM20.6731 20.3619C20.8657 19.9837 20.9371 19.5909 20.9694 19.1958C21.0008 18.8126 21 18.3455 21 17.803H19C19 18.3785 18.9992 18.7499 18.9761 19.0327C18.9539 19.3036 18.9163 19.4043 18.8909 19.4541L20.6731 20.3619ZM21 17.803V13H19V17.803H21ZM21 13C21 12.5477 21.0005 12.1584 20.9787 11.8377C20.9562 11.508 20.9068 11.1781 20.7719 10.8524L18.9241 11.6176C18.9412 11.6589 18.9678 11.7455 18.9833 11.9736C18.9995 12.2106 19 12.5203 19 13H21ZM20.772 10.8525C20.6212 10.4883 20.4001 10.1574 20.1214 9.87862L18.7072 11.2928C18.8001 11.3857 18.8738 11.4961 18.924 11.6175L20.772 10.8525ZM20.1214 9.87862C19.8426 9.59987 19.5117 9.3788 19.1475 9.22803L18.3825 11.076C18.5039 11.1262 18.6143 11.1999 18.7072 11.2928L20.1214 9.87862ZM19.1476 9.22811C18.8219 9.09318 18.492 9.04377 18.1623 9.02131C17.8416 8.99946 17.4523 9 17 9V11C17.4797 11 17.7894 11.0005 18.0264 11.0167C18.2545 11.0322 18.3411 11.0588 18.3824 11.0759L19.1476 9.22811Z" fill="#0E0E0E"/>
</svg>
