<svg width="36" height="36" viewBox="0 0 36 36" fill="none" xmlns="http://www.w3.org/2000/svg">
<circle cx="18" cy="18" r="18" transform="rotate(90 18 18)" fill="#0E0E0E"/>
<path d="M19.2858 27.0033V12.6419L25.5601 18.9162C26.0615 19.4176 26.8844 19.4176 27.3858 18.9162C27.8872 18.4148 27.8872 17.6048 27.3858 17.1033L18.9129 8.63049C18.4115 8.12906 17.6015 8.12906 17.1001 8.63049L8.61435 17.0905C8.11292 17.5919 8.11292 18.4019 8.61435 18.9033C9.11578 19.4048 9.92578 19.4048 10.4272 18.9033L16.7144 12.6419V27.0033C16.7144 27.7105 17.2929 28.2891 18.0001 28.2891C18.7072 28.2891 19.2858 27.7105 19.2858 27.0033Z" fill="white"/>
</svg>
